<?xml version="1.0" encoding="utf-8"?>
<!-- Generator: Adobe Illustrator 19.0.0, SVG Export Plug-In . SVG Version: 6.00 Build 0)  -->
<svg version="1.1" id="Layer_1" xmlns="http://www.w3.org/2000/svg" xmlns:xlink="http://www.w3.org/1999/xlink" x="0px" y="0px"
	 viewBox="0 0 27 27" style="enable-background:new 0 0 27 27;" xml:space="preserve">
<style type="text/css">
	.st0{fill:#404040;}
</style>
<path id="XMLID_1_" class="st0" d="M24.9,9.2c-1.2-1.2-2.8-1.8-4.6-1.8c-1.3,0-2.9,0.5-4.2,1.7l-7.3,7.2c-0.7,0.7-1.6,1.1-2.5,1.1
	c-1,0-1.8-0.4-2.5-1.1c-0.7-0.7-1.1-1.6-1.1-2.5s0.4-1.8,1.1-2.5c0.7-0.7,1.6-1.1,2.5-1.1s2.3,0.8,3,1.5l0.1,0.1
	c0.5,0.5,1.5,0.5,2,0c0.5-0.5,0.5-1.5,0-2l0,0c-1.2-1.2-3.3-2.4-5.1-2.4S3.1,8.1,1.8,9.3C0.6,10.5,0,12.1,0,13.8s0.7,3.3,1.8,4.6
	c1.2,1.2,2.8,1.8,4.6,1.8s3.3-0.7,4.6-1.8l6.9-6.9l0.1-0.1c0.7-0.7,1.6-1.1,2.5-1.1s1.8,0.4,2.5,1.1c0.7,0.7,1.1,1.6,1.1,2.5
	c0,0.9-0.4,1.8-1.1,2.5c-0.7,0.7-1.6,1.1-2.5,1.1S18.6,17,18,16.3l-0.5-0.5c-0.5-0.5-1.5-0.5-2,0c-0.5,0.5-0.5,1.5,0,2.1l0.7,0.7
	l0.3,0.3l0,0c1.1,1,2.6,1.6,4.2,1.6c1.8,0,3.3-0.7,4.6-1.8c1.2-1.2,1.8-2.8,1.8-4.6C26.7,12,26,10.4,24.9,9.2z"/>
</svg>
